<?xml version="1.0" standalone="no"?><!DOCTYPE svg PUBLIC "-//W3C//DTD SVG 1.1//EN" "http://www.w3.org/Graphics/SVG/1.1/DTD/svg11.dtd"><svg t="1732698213831" class="icon" viewBox="0 0 1024 1024" version="1.1" xmlns="http://www.w3.org/2000/svg" p-id="11064" xmlns:xlink="http://www.w3.org/1999/xlink" width="200" height="200"><path d="M604.16 215.04c-10.24 10.24-10.24 25.6 0 35.84 10.24 10.24 25.6 10.24 35.84 0 35.84-35.84 97.28-35.84 133.12 0 5.12 5.12 12.8 7.68 17.92 7.68s12.8-2.56 17.92-7.68c10.24-10.24 10.24-25.6 0-35.84-56.32-56.32-148.48-56.32-204.8 0z" p-id="11065"></path><path d="M875.52 148.48C829.44 102.4 765.44 76.8 704 76.8c-61.44 0-122.88 23.04-171.52 71.68L145.92 535.04c-94.72 94.72-94.72 248.32 0 340.48C192 921.6 256 947.2 317.44 947.2c61.44 0 122.88-23.04 171.52-71.68l386.56-386.56c94.72-94.72 94.72-248.32 0-340.48z m-422.4 691.2C417.28 875.52 368.64 896 317.44 896s-99.84-20.48-135.68-56.32c-74.24-74.24-74.24-194.56 0-268.8L358.4 394.24l240.64 240.64 28.16 28.16-174.08 176.64z m386.56-386.56L663.04 629.76l-25.6-25.6-5.12-5.12L391.68 358.4l176.64-176.64c35.84-35.84 84.48-56.32 135.68-56.32s99.84 20.48 135.68 56.32c74.24 76.8 74.24 197.12 0 271.36z" p-id="11066"></path></svg>