<?xml version="1.0" standalone="no"?><!DOCTYPE svg PUBLIC "-//W3C//DTD SVG 1.1//EN" "http://www.w3.org/Graphics/SVG/1.1/DTD/svg11.dtd"><svg t="1732862846664" class="icon" viewBox="0 0 1024 1024" version="1.1" xmlns="http://www.w3.org/2000/svg" p-id="25552" xmlns:xlink="http://www.w3.org/1999/xlink" width="64" height="64"><path d="M512 512m-512 0a512 512 0 1 0 1024 0 512 512 0 1 0-1024 0Z" fill="#FF4B64" p-id="25553"></path><path d="M714.277926 397.842963h-404.555852a24.651852 24.651852 0 1 1 0-49.303704h404.536889a24.651852 24.651852 0 1 1 0 49.303704z m-171.937185-73.955556h-60.681482a19.721481 19.721481 0 1 1 0-39.442963h60.681482a19.721481 19.721481 0 1 1 0 39.442963z" fill="#FFFFFF" p-id="25554"></path><path d="M659.437037 375.447704h-325.44237v324.721777a40.220444 40.220444 0 0 0 40.751407 39.442963h274.526815a40.220444 40.220444 0 0 0 40.751407-39.442963v-324.721777h-30.568296z m-183.10637 288.237037a20.385185 20.385185 0 0 1-40.751408 0v-182.423704a20.385185 20.385185 0 0 1 40.751408 0z m112.052148 0a20.385185 20.385185 0 0 1-40.751408 0v-182.423704a20.385185 20.385185 0 0 1 40.751408 0z" fill="#FFFFFF" p-id="25555"></path></svg>