<?xml version="1.0" standalone="no"?><!DOCTYPE svg PUBLIC "-//W3C//DTD SVG 1.1//EN" "http://www.w3.org/Graphics/SVG/1.1/DTD/svg11.dtd"><svg t="1732698097997" class="icon" viewBox="0 0 1024 1024" version="1.1" xmlns="http://www.w3.org/2000/svg" p-id="8878" xmlns:xlink="http://www.w3.org/1999/xlink" width="200" height="200"><path d="M512 657.045333c-287.104 0-512-100.202667-512-228.16 0-74.88 75.754667-142.229333 207.829333-184.768a21.333333 21.333333 0 0 1 13.077334 40.597334C109.312 320.682667 42.666667 374.570667 42.666667 428.885333c0 89.578667 188.586667 185.493333 469.333333 185.493334s469.333333-95.914667 469.333333-185.493334c0-54.314667-66.645333-108.224-178.261333-144.192a21.376 21.376 0 0 1-13.781333-26.837333c3.626667-11.2 15.658667-17.365333 26.858666-13.76C948.245333 286.656 1024 354.005333 1024 428.885333c0 127.957333-224.896 228.16-512 228.16z" p-id="8879"></path><path d="M529.386667 482.56s0.021333 0 0 0c-109.461333 0-223.445333-25.386667-338.752-75.434667a21.354667 21.354667 0 0 1-12.842667-19.114666l-0.213333-4.437334a136.426667 136.426667 0 0 1-0.298667-7.872C177.28 168.533333 327.445333 0 512 0c184.576 0 334.741333 168.533333 334.741333 375.701333 0 2.581333-0.128 5.12-0.277333 7.637334l-0.192 3.968a21.418667 21.418667 0 0 1-11.093333 18.133333c-93.482667 51.157333-196.394667 77.12-305.792 77.12z m-309.418667-109.333333c209.578667 87.744 414.016 89.088 584.128 0.448C803.114667 190.976 672.448 42.666667 512 42.666667c-160.32 0-290.88 148.053333-292.032 330.56zM287.872 1024c-103.594667 0-181.013333-92.010667-181.013333-174.250667 0-81.770667 74.432-138.88 181.013333-138.88 106.581333 0 181.013333 57.109333 181.013333 138.88 0 82.261333-77.397333 174.250667-181.013333 174.250667z m0-270.464c-68.864 0-138.346667 29.76-138.346667 96.213333 0 60.864 60.437333 131.584 138.346667 131.584s138.346667-70.72 138.346667-131.584c0-66.453333-69.482667-96.213333-138.346667-96.213333zM736.128 1024c-103.573333 0-180.992-92.010667-180.992-174.250667 0-81.770667 74.432-138.88 180.992-138.88 106.602667 0 181.056 57.109333 181.056 138.88 0 82.261333-77.44 174.250667-181.056 174.250667z m0-270.464c-68.864 0-138.325333 29.76-138.325333 96.213333 0 60.864 60.437333 131.584 138.325333 131.584 77.930667 0 138.389333-70.72 138.389333-131.584 0-66.453333-69.504-96.213333-138.389333-96.213333z" p-id="8880"></path><path d="M576.448 854.165333h-128.896a21.333333 21.333333 0 1 1 0-42.666666h128.896a21.333333 21.333333 0 1 1 0 42.666666z" p-id="8881"></path><path d="M118.250667 854.165333h-64.426667a21.333333 21.333333 0 1 1 0-42.666666h64.426667a21.333333 21.333333 0 1 1 0 42.666666zM970.218667 854.165333h-64.426667a21.333333 21.333333 0 1 1 0-42.666666h64.426667a21.333333 21.333333 0 1 1 0 42.666666z" p-id="8882"></path></svg>