<?xml version="1.0" standalone="no"?><!DOCTYPE svg PUBLIC "-//W3C//DTD SVG 1.1//EN" "http://www.w3.org/Graphics/SVG/1.1/DTD/svg11.dtd"><svg t="1732698304768" class="icon" viewBox="0 0 1024 1024" version="1.1" xmlns="http://www.w3.org/2000/svg" p-id="13153" xmlns:xlink="http://www.w3.org/1999/xlink" width="200" height="200"><path d="M886.4 625.066667h-56.533333v-18.133334c0-11.733333-2.133333-22.4-6.4-33.066666l-94.933334-226.133334c-8.533333-18.133333-28.8-33.066667-40.533333-33.066666H334.933333c-11.733333 0-32 14.933333-41.6 34.133333l-97.066666 233.6c-2.133333 4.266667-3.2 9.6-3.2 14.933333v27.733334h-55.466667V597.333333c0-12.8 2.133333-24.533333 7.466667-36.266666l98.133333-234.666667c17.066667-39.466667 57.6-68.266667 92.8-68.266667h353.066667c35.2 0 75.733333 28.8 92.8 67.2l94.933333 226.133334c7.466667 17.066667 10.666667 36.266667 10.666667 54.4v19.2zM323.2 645.333333l-71.466667-9.6c-11.733333 0-20.266667 8.533333-20.266666 20.266667v29.866667c0 10.666667 9.6 25.6 20.266666 25.6h71.466667c11.733333 0 20.266667-13.866667 20.266667-25.6v-20.266667c0-11.733333-9.6-20.266667-20.266667-20.266667zM772.266667 634.666667l-71.466667 9.6c-11.733333 0-20.266667 8.533333-20.266667 20.266666v20.266667c0 10.666667 9.6 25.6 20.266667 25.6h71.466667c11.733333 0 20.266667-13.866667 20.266666-25.6v-29.866667c0-10.666667-8.533333-20.266667-20.266666-20.266666zM333.866667 841.6h37.333333c20.266667 0 37.333333 17.066667 37.333333 37.333333s-17.066667 37.333333-37.333333 37.333334h-37.333333c-20.266667 0-37.333333-17.066667-37.333334-37.333334s17.066667-37.333333 37.333334-37.333333zM652.8 841.6h37.333333c20.266667 0 37.333333 17.066667 37.333334 37.333333s-17.066667 37.333333-37.333334 37.333334h-37.333333c-20.266667 0-37.333333-17.066667-37.333333-37.333334s16-37.333333 37.333333-37.333333z" fill="#666666" p-id="13154"></path><path d="M193.066667 503.466667H128c-16 0-27.733333-12.8-27.733333-27.733334S113.066667 448 128 448h65.066667c16 0 27.733333 12.8 27.733333 27.733333s-11.733333 27.733333-27.733333 27.733334zM896 503.466667h-65.066667c-16 0-27.733333-12.8-27.733333-27.733334s12.8-27.733333 27.733333-27.733333H896c16 0 27.733333 12.8 27.733333 27.733333s-11.733333 27.733333-27.733333 27.733334zM612.266667 156.8c-4.266667 5.333333-6.4 12.8-6.4 20.266667 0 19.2 17.066667 34.133333 37.333333 34.133333s37.333333-16 37.333333-34.133333c0-7.466667-2.133333-13.866667-6.4-20.266667L643.2 117.333333l-30.933333 39.466667M481.066667 156.8c-4.266667 5.333333-6.4 12.8-6.4 20.266667 0 19.2 17.066667 34.133333 37.333333 34.133333s37.333333-16 37.333333-34.133333c0-7.466667-2.133333-13.866667-6.4-20.266667L512 117.333333l-30.933333 39.466667M349.866667 156.8c-4.266667 5.333333-6.4 12.8-6.4 20.266667 0 19.2 17.066667 34.133333 37.333333 34.133333s37.333333-16 37.333333-34.133333c0-7.466667-2.133333-13.866667-6.4-20.266667L380.8 117.333333l-30.933333 39.466667" fill="#666666" p-id="13155"></path><path d="M802.133333 870.4H221.866667c-46.933333 0-84.266667-37.333333-84.266667-84.266667V606.933333c0-46.933333 37.333333-84.266667 84.266667-84.266666h580.266666c46.933333 0 84.266667 37.333333 84.266667 84.266666v179.2c0 45.866667-37.333333 84.266667-84.266667 84.266667zM221.866667 578.133333c-16 0-27.733333 12.8-27.733334 27.733334v179.2c0 16 12.8 27.733333 27.733334 27.733333h580.266666c16 0 27.733333-12.8 27.733334-27.733333V606.933333c0-16-12.8-27.733333-27.733334-27.733333H221.866667z" fill="#666666" p-id="13156"></path><path d="M605.866667 766.933333H418.133333c-16 0-27.733333-12.8-27.733333-27.733333s12.8-27.733333 27.733333-27.733333h187.733334c16 0 27.733333 12.8 27.733333 27.733333s-12.8 27.733333-27.733333 27.733333z" fill="#666666" p-id="13157"></path></svg>